<svg width="33" height="53" viewBox="0 0 33 53" fill="none" xmlns="http://www.w3.org/2000/svg">
<path d="M0.741637 26.5156C0.741637 27.5958 1.15429 28.6639 1.97355 29.4831L23.5169 51.0265C25.1614 52.671 27.8194 52.671 29.464 51.0265L31.3089 49.1816C32.9534 47.537 32.9534 44.879 31.3089 43.2344L17.5636 29.4892C16.7444 28.67 16.3317 27.5898 16.3317 26.5217C16.3317 25.4536 16.7444 24.3613 17.5636 23.542L31.3089 9.7968C32.9534 8.15223 32.9534 5.49421 31.3089 3.84963L29.458 1.99873C27.8134 0.354156 25.1554 0.354155 23.5108 1.99873L1.96748 23.542C1.14823 24.3613 0.735568 25.4415 0.741637 26.5156Z" fill="#D1643D"/>
</svg>
