<svg width="27" height="28" viewBox="0 0 27 28" fill="none" xmlns="http://www.w3.org/2000/svg">
<path d="M1.6875 6.4859V7.1447C1.6875 8.168 2.5164 8.9969 3.5397 8.9969H23.4576C24.4809 8.9969 25.3098 8.168 25.3098 7.1447V6.4859C25.3098 5.4626 24.4809 4.6337 23.4576 4.6337H3.5397C2.5164 4.6337 1.6875 5.4626 1.6875 6.4859ZM3.5397 16.1897H23.4576C24.4809 16.1897 25.3098 15.3608 25.3098 14.3375V13.676C25.3098 12.6527 24.4809 11.8238 23.4576 11.8238H3.5397C2.5164 11.8238 1.6875 12.6527 1.6875 13.676V14.3348C1.6875 15.3608 2.5164 16.1897 3.5397 16.1897ZM3.5397 23.3798H23.4576C24.4809 23.3798 25.3098 22.5509 25.3098 21.5276V20.8688C25.3098 19.8455 24.4809 19.0166 23.4576 19.0166H3.5397C2.5164 19.0166 1.6875 19.8455 1.6875 20.8688V21.5276C1.6875 22.5509 2.5164 23.3798 3.5397 23.3798Z" fill="#8C3B1C"/>
</svg>
