<svg width="118" height="174" viewBox="0 0 118 174" fill="none" xmlns="http://www.w3.org/2000/svg">
<path d="M55.1582 169.75C51.4105 164.64 47.7421 159.649 44.2125 154.599C32.077 137.3 20.8537 119.444 11.7918 100.296C7.35002 90.8911 3.2652 81.3071 1.28228 71.067C-2.46543 51.8593 1.9763 34.6002 14.9446 19.9061C27.4568 5.76872 43.4788 -0.713383 62.2769 0.062083C88.5109 1.15569 111.414 20.94 116.748 46.8088C118.929 57.4267 118.215 67.806 114.963 78.1456C108.439 98.7054 98.2272 117.416 86.5478 135.351C78.1997 148.156 69.118 160.484 60.3535 173.011C60.1353 173.309 59.9172 173.588 59.6198 173.926C59.1835 174.403 57.2006 172.534 55.1582 169.75ZM87.8367 60.0315C88.6101 45.059 76.2168 31.1006 61.4044 30.2854C44.3116 29.331 31.0657 41.2612 30.1536 58.5004C29.3604 73.4729 42.0313 87.3717 57.161 88.0875C73.7977 88.8828 86.9841 76.7935 87.8367 60.0315Z" fill="#D1643D"/>
</svg>
