<svg xmlns="http://www.w3.org/2000/svg" version="1.1" xmlns:xlink="http://www.w3.org/1999/xlink" xmlns:svgjs="http://svgjs.dev/svgjs" width="211" height="190"><svg width="211" height="190" viewBox="0 0 211 190" fill="none" xmlns="http://www.w3.org/2000/svg">
<path d="M2.24877 189.125C1.26387 189.125 0.611897 188.103 1.0558 187.239C3.53885 182.439 14.9138 170.698 16.5714 169.245C40.2645 148.541 72.6483 143.22 103.34 148.534C104.852 148.795 108.812 149.611 107.813 151.058L82.1436 188.556C81.8939 188.912 81.4847 189.132 81.0477 189.132H2.24877V189.125Z" fill="#D1643D"></path>
<path d="M210.257 151.819V188.131C210.257 188.686 209.806 189.132 209.244 189.139L143.069 189.55C142.507 189.55 142.049 189.104 142.049 188.542V151.819C142.049 151.264 142.507 150.811 143.069 150.811H209.244C209.806 150.811 210.264 151.264 210.264 151.819H210.257Z" fill="#D1643D"></path>
<path d="M210.25 1.67703C210.25 1.25186 209.903 0.908974 209.473 0.908974C209.473 0.908974 134.309 0.799251 132.138 0.963835C130.085 1.12156 129.987 1.0187 127.921 3.89207L80.9089 73.2781C80.2153 74.2999 81.4777 75.5137 82.4903 74.7937L94.1704 66.537C128.656 44.8393 150.622 57.8758 178.608 50.0717C189.754 46.9652 201.358 40.1006 209.889 32.3103C210.118 32.0977 210.25 31.8028 210.25 31.4942V1.67703Z" fill="#D1643D"></path>
</svg><style>@media (prefers-color-scheme: light) { :root { filter: none; } }
@media (prefers-color-scheme: dark) { :root { filter: none; } }
</style></svg>