<?xml version="1.0" encoding="UTF-8"?>
<svg id="Ebene_2" data-name="Ebene 2" xmlns="http://www.w3.org/2000/svg" viewBox="0 0 1270.2 297.97">
  <defs>
    <style>
      .cls-1 {
        fill: #fff;
      }
    </style>
  </defs>
  <g>
    <path class="cls-1" d="M374.95,282.05l-12.29-41.77h8.4l8.18,30.67h.41l8.21-30.67h8.4l8.16,30.54h.41l8.13-30.54h8.4l-12.26,41.77h-8.29l-8.48-30.16h-.63l-8.48,30.16h-8.27Z"/>
    <path class="cls-1" d="M447.04,282.89c-3.92,0-7.33-.9-10.25-2.69-2.92-1.79-5.18-4.31-6.8-7.53-1.61-3.23-2.42-7-2.42-11.31s.81-8.12,2.42-11.37c1.61-3.24,3.88-5.76,6.8-7.56s6.34-2.69,10.25-2.69,7.33.9,10.25,2.69c2.92,1.79,5.18,4.32,6.8,7.56,1.61,3.25,2.42,7.03,2.42,11.37s-.81,8.08-2.42,11.31c-1.61,3.23-3.88,5.74-6.8,7.53-2.92,1.79-6.34,2.69-10.25,2.69ZM447.06,276.07c2.54,0,4.64-.67,6.31-2.01,1.67-1.34,2.91-3.13,3.71-5.36s1.21-4.69,1.21-7.37-.4-5.12-1.21-7.36-2.04-4.04-3.71-5.4c-1.67-1.36-3.77-2.04-6.31-2.04s-4.67.68-6.35,2.04c-1.68,1.36-2.92,3.16-3.73,5.4s-1.21,4.69-1.21,7.36.4,5.14,1.21,7.37,2.05,4.02,3.73,5.36c1.68,1.34,3.79,2.01,6.35,2.01Z"/>
    <path class="cls-1" d="M485.61,257.25v24.8h-8.13v-55.69h8.02v20.72h.52c.98-2.25,2.47-4.03,4.49-5.36,2.01-1.32,4.64-1.98,7.89-1.98,2.86,0,5.37.59,7.52,1.77,2.15,1.18,3.82,2.93,5,5.26,1.19,2.33,1.78,5.23,1.78,8.71v26.57h-8.13v-25.59c0-3.06-.79-5.44-2.37-7.14s-3.77-2.54-6.58-2.54c-1.92,0-3.64.41-5.15,1.22-1.51.82-2.7,2.01-3.56,3.58-.86,1.57-1.29,3.46-1.29,5.67Z"/>
    <path class="cls-1" d="M533.61,257.25v24.8h-8.13v-41.77h7.8v6.8h.52c.96-2.21,2.47-3.99,4.53-5.33,2.06-1.34,4.65-2.01,7.79-2.01,2.85,0,5.34.59,7.48,1.78,2.14,1.19,3.8,2.95,4.98,5.29,1.18,2.34,1.77,5.23,1.77,8.67v26.57h-8.13v-25.59c0-3.03-.79-5.4-2.37-7.11s-3.74-2.57-6.5-2.57c-1.89,0-3.56.41-5.02,1.22-1.46.82-2.61,2.01-3.45,3.58-.84,1.57-1.26,3.46-1.26,5.67Z"/>
    <path class="cls-1" d="M591.14,282.89c-4.12,0-7.66-.88-10.62-2.65s-5.25-4.26-6.85-7.48-2.41-6.99-2.41-11.33.8-8.05,2.41-11.31c1.6-3.26,3.85-5.81,6.74-7.64,2.89-1.83,6.28-2.75,10.16-2.75,2.36,0,4.64.39,6.85,1.17,2.21.78,4.2,2,5.96,3.67,1.76,1.67,3.15,3.83,4.16,6.49,1.02,2.66,1.52,5.88,1.52,9.67v2.88h-33.2v-6.09h25.24c0-2.14-.44-4.04-1.31-5.7-.87-1.66-2.09-2.97-3.66-3.93s-3.4-1.44-5.51-1.44c-2.28,0-4.27.56-5.97,1.67s-3,2.57-3.92,4.35c-.92,1.79-1.37,3.72-1.37,5.81v4.76c0,2.79.49,5.17,1.48,7.12.99,1.96,2.37,3.45,4.15,4.47,1.78,1.02,3.85,1.54,6.23,1.54,1.54,0,2.95-.22,4.21-.67,1.27-.44,2.37-1.11,3.29-2,.92-.89,1.63-1.99,2.12-3.29l7.7,1.39c-.62,2.27-1.72,4.25-3.3,5.94-1.59,1.7-3.57,3.01-5.96,3.94s-5.1,1.4-8.14,1.4Z"/>
    <path class="cls-1" d="M628.16,257.25v24.8h-8.13v-41.77h7.8v6.8h.52c.96-2.21,2.47-3.99,4.53-5.33,2.06-1.34,4.65-2.01,7.79-2.01,2.85,0,5.34.59,7.48,1.78,2.14,1.19,3.8,2.95,4.98,5.29,1.18,2.34,1.77,5.23,1.77,8.67v26.57h-8.13v-25.59c0-3.03-.79-5.4-2.37-7.11s-3.74-2.57-6.5-2.57c-1.89,0-3.56.41-5.02,1.22-1.46.82-2.61,2.01-3.45,3.58-.84,1.57-1.26,3.46-1.26,5.67Z"/>
    <path class="cls-1" d="M699.07,282.05v-41.77h7.8v6.8h.52c.87-2.3,2.29-4.1,4.27-5.4,1.98-1.3,4.34-1.94,7.1-1.94s5.13.65,7.03,1.96c1.89,1.31,3.29,3.1,4.2,5.38h.44c1-2.23,2.58-4.01,4.76-5.34,2.17-1.33,4.77-2,7.78-2,3.79,0,6.88,1.19,9.29,3.56,2.4,2.38,3.6,5.96,3.6,10.74v28.01h-8.13v-27.25c0-2.83-.77-4.88-2.31-6.15-1.54-1.27-3.38-1.9-5.52-1.9-2.65,0-4.7.81-6.17,2.43s-2.2,3.7-2.2,6.24v26.62h-8.1v-27.76c0-2.27-.71-4.09-2.12-5.47s-3.25-2.07-5.52-2.07c-1.54,0-2.96.4-4.26,1.21s-2.34,1.93-3.13,3.36c-.79,1.43-1.18,3.09-1.18,4.98v25.75h-8.13Z"/>
    <path class="cls-1" d="M772.74,233.84c-1.41,0-2.62-.48-3.63-1.43-1.01-.95-1.51-2.09-1.51-3.41s.5-2.49,1.51-3.44c1.01-.95,2.22-1.43,3.63-1.43s2.62.48,3.63,1.43c1.01.95,1.51,2.09,1.51,3.41s-.5,2.49-1.51,3.44c-1.01.95-2.22,1.43-3.63,1.43ZM768.63,282.05v-41.77h8.13v41.77h-8.13Z"/>
    <path class="cls-1" d="M812.17,240.28v6.53h-22.81v-6.53h22.81ZM795.47,230.27h8.13v39.51c0,1.58.24,2.76.71,3.55.47.79,1.08,1.32,1.83,1.6.75.28,1.57.42,2.46.42.65,0,1.22-.04,1.71-.14.49-.09.87-.16,1.14-.22l1.47,6.72c-.47.18-1.14.37-2.01.56s-1.96.29-3.26.31c-2.14.04-4.13-.34-5.98-1.14-1.85-.8-3.34-2.03-4.49-3.7-1.14-1.67-1.71-3.76-1.71-6.28v-41.2Z"/>
    <path class="cls-1" d="M863.5,282.05l-12.29-41.77h8.4l8.18,30.67h.41l8.21-30.67h8.4l8.16,30.54h.41l8.13-30.54h8.4l-12.26,41.77h-8.29l-8.48-30.16h-.63l-8.48,30.16h-8.27Z"/>
    <path class="cls-1" d="M937.53,282.89c-4.12,0-7.66-.88-10.62-2.65s-5.25-4.26-6.85-7.48-2.41-6.99-2.41-11.33.8-8.05,2.41-11.31c1.6-3.26,3.85-5.81,6.74-7.64,2.89-1.83,6.28-2.75,10.16-2.75,2.36,0,4.64.39,6.85,1.17,2.21.78,4.2,2,5.96,3.67,1.76,1.67,3.15,3.83,4.16,6.49,1.02,2.66,1.52,5.88,1.52,9.67v2.88h-33.2v-6.09h25.24c0-2.14-.44-4.04-1.31-5.7-.87-1.66-2.09-2.97-3.66-3.93s-3.4-1.44-5.51-1.44c-2.28,0-4.27.56-5.97,1.67s-3,2.57-3.92,4.35c-.92,1.79-1.37,3.72-1.37,5.81v4.76c0,2.79.49,5.17,1.48,7.12.99,1.96,2.37,3.45,4.15,4.47,1.78,1.02,3.85,1.54,6.23,1.54,1.54,0,2.95-.22,4.21-.67,1.27-.44,2.37-1.11,3.29-2,.92-.89,1.63-1.99,2.12-3.29l7.7,1.39c-.62,2.27-1.72,4.25-3.3,5.94-1.59,1.7-3.57,3.01-5.96,3.94s-5.1,1.4-8.14,1.4Z"/>
    <path class="cls-1" d="M972.06,233.84c-1.41,0-2.62-.48-3.63-1.43-1.01-.95-1.51-2.09-1.51-3.41s.5-2.49,1.51-3.44c1.01-.95,2.22-1.43,3.63-1.43s2.62.48,3.63,1.43c1.01.95,1.51,2.09,1.51,3.41s-.5,2.49-1.51,3.44c-1.01.95-2.22,1.43-3.63,1.43ZM967.95,282.05v-41.77h8.13v41.77h-8.13Z"/>
    <path class="cls-1" d="M1011.49,240.28v6.53h-22.81v-6.53h22.81ZM994.79,230.27h8.13v39.51c0,1.58.24,2.76.71,3.55.47.79,1.08,1.32,1.83,1.6.75.28,1.57.42,2.46.42.65,0,1.22-.04,1.71-.14.49-.09.87-.16,1.14-.22l1.47,6.72c-.47.18-1.14.37-2.01.56s-1.96.29-3.26.31c-2.14.04-4.13-.34-5.98-1.14-1.85-.8-3.34-2.03-4.49-3.7-1.14-1.67-1.71-3.76-1.71-6.28v-41.2Z"/>
    <path class="cls-1" d="M1024.56,282.05v-55.69h8.13v20.69h.49c.47-.87,1.15-1.88,2.04-3.02.89-1.14,2.12-2.14,3.7-3,1.58-.86,3.66-1.29,6.25-1.29,3.37,0,6.38.85,9.03,2.56,2.65,1.7,4.73,4.16,6.24,7.37s2.27,7.07,2.27,11.58-.75,8.38-2.26,11.6c-1.5,3.22-3.57,5.69-6.2,7.42-2.63,1.73-5.63,2.6-9,2.6-2.54,0-4.61-.43-6.21-1.28-1.6-.85-2.86-1.85-3.77-2.99-.91-1.14-1.6-2.16-2.09-3.05h-.68v6.5h-7.94ZM1032.53,261.17c0,2.94.43,5.51,1.28,7.72.85,2.21,2.08,3.94,3.7,5.18,1.61,1.24,3.59,1.86,5.93,1.86s4.46-.65,6.09-1.94c1.63-1.3,2.87-3.06,3.71-5.29s1.26-4.74,1.26-7.53-.41-5.23-1.24-7.42-2.06-3.92-3.7-5.19c-1.64-1.27-3.68-1.9-6.13-1.9s-4.35.61-5.97,1.82c-1.62,1.21-2.85,2.91-3.68,5.08-.83,2.18-1.25,4.71-1.25,7.61Z"/>
    <path class="cls-1" d="M1081.87,226.36v55.69h-8.13v-55.69h8.13Z"/>
    <path class="cls-1" d="M1100.35,233.84c-1.41,0-2.62-.48-3.63-1.43-1.01-.95-1.51-2.09-1.51-3.41s.5-2.49,1.51-3.44c1.01-.95,2.22-1.43,3.63-1.43s2.62.48,3.63,1.43c1.01.95,1.51,2.09,1.51,3.41s-.5,2.49-1.51,3.44c-1.01.95-2.22,1.43-3.63,1.43ZM1096.24,282.05v-41.77h8.13v41.77h-8.13Z"/>
    <path class="cls-1" d="M1136.34,282.89c-4.04,0-7.52-.92-10.43-2.76-2.91-1.84-5.14-4.38-6.7-7.63-1.56-3.24-2.34-6.96-2.34-11.15s.8-7.99,2.39-11.24c1.59-3.25,3.84-5.8,6.74-7.63,2.9-1.83,6.32-2.75,10.25-2.75,3.17,0,6,.58,8.48,1.75,2.48,1.17,4.49,2.8,6.02,4.91,1.53,2.1,2.44,4.56,2.73,7.37h-7.91c-.43-1.96-1.43-3.64-2.98-5.06-1.55-1.41-3.62-2.12-6.21-2.12-2.27,0-4.25.59-5.94,1.78-1.7,1.19-3.01,2.87-3.96,5.06-.94,2.18-1.41,4.76-1.41,7.74s.46,5.67,1.39,7.89,2.23,3.92,3.93,5.14c1.69,1.21,3.69,1.82,6,1.82,1.54,0,2.94-.29,4.2-.86,1.26-.57,2.32-1.39,3.18-2.46.86-1.07,1.46-2.36,1.81-3.86h7.91c-.29,2.7-1.17,5.11-2.64,7.23-1.47,2.12-3.43,3.79-5.89,5-2.46,1.21-5.33,1.82-8.63,1.82Z"/>
    <path class="cls-1" d="M1162.61,282.05v-55.69h8.13v55.69h-8.13ZM1170.09,267.88l-.05-9.93h1.41l16.64-17.68h9.74l-18.98,20.12h-1.28l-7.48,7.48ZM1188.99,282.05l-14.96-19.85,5.6-5.68,19.33,25.53h-9.98Z"/>
  </g>
  <g>
    <path class="cls-1" d="M483.22,53.87c3.1,0,5.7,1.05,7.8,3.15,2.1,2.1,3.15,4.7,3.15,7.8v120.7c0,3.1-1.05,5.75-3.15,7.94-2.1,2.19-4.7,3.28-7.8,3.28-3.28,0-5.93-1.09-7.94-3.28-2.01-2.19-3.01-4.83-3.01-7.94v-26l5.2-.55c0,4.02-1.37,8.39-4.11,13.14-2.74,4.75-6.48,9.17-11.22,13.27-4.75,4.11-10.36,7.48-16.83,10.13-6.48,2.64-13.46,3.97-20.94,3.97-12.41,0-23.54-3.24-33.39-9.72-9.85-6.47-17.65-15.28-23.4-26.41-5.75-11.13-8.62-23.81-8.62-38.04s2.87-27.14,8.62-38.18c5.75-11.04,13.55-19.71,23.4-26,9.85-6.29,20.8-9.44,32.84-9.44,7.84,0,15.14,1.28,21.9,3.83,6.75,2.56,12.63,6.02,17.65,10.4,5.02,4.38,8.94,9.22,11.77,14.51,2.83,5.29,4.24,10.58,4.24,15.87l-7.12-1.64v-29.83c0-3.1,1-5.7,3.01-7.8,2.01-2.09,4.65-3.15,7.94-3.15ZM426.84,179.22c9.12,0,17.2-2.37,24.22-7.12,7.02-4.74,12.5-11.17,16.42-19.29,3.92-8.12,5.88-17.29,5.88-27.51s-1.96-19.11-5.88-27.23c-3.93-8.12-9.4-14.51-16.42-19.16-7.03-4.65-15.1-6.98-24.22-6.98s-16.93,2.28-23.95,6.84c-7.03,4.56-12.55,10.86-16.56,18.89-4.02,8.03-6.02,17.24-6.02,27.64s1.96,19.39,5.88,27.51c3.92,8.12,9.4,14.55,16.42,19.29,7.02,4.75,15.1,7.12,24.22,7.12Z"/>
    <path class="cls-1" d="M637.86,55.24c3.28,0,5.93,1.05,7.94,3.15,2.01,2.1,3.01,4.7,3.01,7.8v74.72c0,18.43-5.16,32.71-15.46,42.83-10.31,10.13-24.68,15.19-43.11,15.19s-32.53-5.06-42.83-15.19c-10.31-10.13-15.46-24.4-15.46-42.83v-74.72c0-3.1,1.05-5.7,3.15-7.8,2.09-2.1,4.7-3.15,7.8-3.15,3.28,0,5.93,1.05,7.94,3.15,2.01,2.1,3.01,4.7,3.01,7.8v74.72c0,12.41,3.19,21.81,9.58,28.19,6.38,6.39,15.33,9.58,26.82,9.58s20.94-3.19,27.23-9.58c6.29-6.38,9.44-15.78,9.44-28.19v-74.72c0-3.1,1.05-5.7,3.15-7.8s4.7-3.15,7.8-3.15Z"/>
    <path class="cls-1" d="M700.26,196.74c-3.1,0-5.71-1.09-7.8-3.28-2.1-2.19-3.15-4.83-3.15-7.94v-119.33c0-3.1,1.05-5.7,3.15-7.8,2.09-2.1,4.7-3.15,7.8-3.15,3.28,0,5.93,1.05,7.94,3.15,2.01,2.1,3.01,4.7,3.01,7.8v36.13l-3.29-5.75c1.1-5.65,3.05-11.17,5.88-16.56,2.83-5.38,6.43-10.22,10.81-14.51,4.38-4.29,9.39-7.66,15.05-10.13,5.65-2.46,11.86-3.7,18.61-3.7,4.01,0,7.71.96,11.08,2.87,3.37,1.92,5.06,4.61,5.06,8.07,0,3.83-1.01,6.66-3.01,8.48-2.01,1.83-4.29,2.74-6.84,2.74-2.37,0-4.65-.5-6.84-1.51-2.19-1-4.93-1.5-8.21-1.5-4.56,0-9.08,1.23-13.55,3.69-4.47,2.46-8.58,5.98-12.32,10.54-3.74,4.56-6.75,9.72-9.03,15.46-2.28,5.75-3.42,11.91-3.42,18.47v66.51c0,3.1-1.05,5.75-3.15,7.94-2.1,2.19-4.7,3.28-7.8,3.28Z"/>
    <path class="cls-1" d="M927.43,125.58c0,14.23-3.15,26.92-9.44,38.04-6.29,11.13-14.78,19.89-25.45,26.27-10.67,6.39-22.67,9.58-35.99,9.58s-25.36-3.19-36.13-9.58c-10.77-6.38-19.3-15.14-25.59-26.27-6.29-11.13-9.44-23.81-9.44-38.04s3.15-26.91,9.44-38.04c6.29-11.13,14.82-19.89,25.59-26.28,10.76-6.38,22.81-9.58,36.13-9.58s25.32,3.19,35.99,9.58c10.67,6.39,19.16,15.15,25.45,26.28,6.29,11.13,9.44,23.81,9.44,38.04ZM905.53,125.58c0-10.58-2.15-19.88-6.43-27.92-4.29-8.03-10.13-14.32-17.52-18.89-7.39-4.56-15.74-6.84-25.04-6.84s-17.65,2.28-25.04,6.84c-7.39,4.56-13.27,10.86-17.65,18.89-4.38,8.03-6.57,17.34-6.57,27.92s2.19,19.62,6.57,27.64c4.38,8.03,10.26,14.37,17.65,19.02,7.39,4.65,15.74,6.98,25.04,6.98s17.65-2.33,25.04-6.98c7.39-4.65,13.23-10.99,17.52-19.02,4.29-8.03,6.43-17.24,6.43-27.64Z"/>
    <path class="cls-1" d="M971.21,196.74c-3.1,0-5.71-1.09-7.8-3.28-2.1-2.19-3.15-4.83-3.15-7.94v-119.33c0-3.1,1.05-5.7,3.15-7.8,2.09-2.1,4.7-3.15,7.8-3.15,3.28,0,5.93,1.05,7.94,3.15,2.01,2.1,3.01,4.7,3.01,7.8v36.13l-3.29-5.75c1.1-5.65,3.05-11.17,5.88-16.56,2.83-5.38,6.43-10.22,10.81-14.51,4.38-4.29,9.39-7.66,15.05-10.13,5.65-2.46,11.86-3.7,18.61-3.7,4.01,0,7.71.96,11.08,2.87,3.37,1.92,5.06,4.61,5.06,8.07,0,3.83-1.01,6.66-3.01,8.48-2.01,1.83-4.29,2.74-6.84,2.74-2.37,0-4.65-.5-6.84-1.51-2.19-1-4.93-1.5-8.21-1.5-4.56,0-9.08,1.23-13.55,3.69-4.47,2.46-8.58,5.98-12.32,10.54-3.74,4.56-6.75,9.72-9.03,15.46-2.28,5.75-3.42,11.91-3.42,18.47v66.51c0,3.1-1.05,5.75-3.15,7.94-2.1,2.19-4.7,3.28-7.8,3.28Z"/>
    <path class="cls-1" d="M1183.33,53.87c3.1,0,5.7,1.05,7.8,3.15,2.1,2.1,3.15,4.7,3.15,7.8v120.7c0,3.1-1.05,5.75-3.15,7.94-2.1,2.19-4.7,3.28-7.8,3.28-3.28,0-5.93-1.09-7.94-3.28-2.01-2.19-3.01-4.83-3.01-7.94v-26l5.2-.55c0,4.02-1.37,8.39-4.11,13.14-2.74,4.75-6.48,9.17-11.22,13.27-4.75,4.11-10.36,7.48-16.83,10.13-6.48,2.64-13.46,3.97-20.94,3.97-12.41,0-23.54-3.24-33.39-9.72-9.85-6.47-17.65-15.28-23.4-26.41-5.75-11.13-8.62-23.81-8.62-38.04s2.87-27.14,8.62-38.18c5.75-11.04,13.55-19.71,23.4-26,9.85-6.29,20.8-9.44,32.84-9.44,7.84,0,15.14,1.28,21.9,3.83,6.75,2.56,12.63,6.02,17.65,10.4,5.02,4.38,8.94,9.22,11.77,14.51,2.83,5.29,4.24,10.58,4.24,15.87l-7.12-1.64v-29.83c0-3.1,1-5.7,3.01-7.8,2.01-2.09,4.65-3.15,7.94-3.15ZM1126.95,179.22c9.12,0,17.2-2.37,24.22-7.12,7.02-4.74,12.5-11.17,16.42-19.29,3.92-8.12,5.88-17.29,5.88-27.51s-1.96-19.11-5.88-27.23c-3.93-8.12-9.4-14.51-16.42-19.16-7.03-4.65-15.1-6.98-24.22-6.98s-16.93,2.28-23.95,6.84c-7.03,4.56-12.55,10.86-16.56,18.89-4.02,8.03-6.02,17.24-6.02,27.64s1.96,19.39,5.88,27.51c3.92,8.12,9.4,14.55,16.42,19.29,7.02,4.75,15.1,7.12,24.22,7.12Z"/>
  </g>
  <g>
    <path class="cls-1" d="M17.66,283.57c-1.42,0-2.36-1.49-1.72-2.75,3.58-7,19.98-24.12,22.37-26.24,34.16-30.19,80.85-37.95,125.1-30.2,2.18.38,7.89,1.57,6.45,3.68l-37.01,54.68c-.36.52-.95.84-1.58.84H17.66Z"/>
    <path class="cls-1" d="M317.56,229.17v52.95c0,.81-.65,1.46-1.46,1.47l-95.41.6c-.81,0-1.47-.65-1.47-1.47v-53.55c0-.81.66-1.47,1.47-1.47h95.41c.81,0,1.47.66,1.47,1.47Z"/>
    <path class="cls-1" d="M317.55,10.23c0-.62-.5-1.12-1.12-1.12,0,0-108.37-.16-111.5.08-2.96.23-3.1.08-6.08,4.27l-67.78,101.18c-1,1.49.82,3.26,2.28,2.21l16.84-12.04c49.72-31.64,81.39-12.63,121.74-24.01,16.07-4.53,32.8-14.54,45.1-25.9.33-.31.52-.74.52-1.19V10.23Z"/>
  </g>
</svg>