<svg width="881" height="205" viewBox="0 0 881 205" fill="none" xmlns="http://www.w3.org/2000/svg">
<path d="M260.062 194.083L251.538 165.438H257.364L263.038 186.471H263.322L269.016 165.438H274.843L280.502 186.381H280.787L286.426 165.438H292.252L283.748 194.083H277.998L272.117 173.4H271.68L265.798 194.083H260.062Z" fill="#353535"/>
<path d="M310.063 194.659C307.344 194.659 304.979 194.041 302.954 192.814C300.929 191.586 299.361 189.858 298.237 187.65C297.121 185.435 296.559 182.85 296.559 179.894C296.559 176.938 297.121 174.326 298.237 172.097C299.354 169.875 300.929 168.147 302.954 166.912C304.979 165.678 307.351 165.068 310.063 165.068C312.775 165.068 315.147 165.685 317.173 166.912C319.198 168.14 320.765 169.875 321.889 172.097C323.006 174.326 323.567 176.918 323.567 179.894C323.567 182.87 323.006 185.435 321.889 187.65C320.772 189.865 319.198 191.586 317.173 192.814C315.147 194.041 312.775 194.659 310.063 194.659ZM310.077 189.982C311.839 189.982 313.295 189.522 314.454 188.603C315.612 187.684 316.472 186.457 317.027 184.928C317.582 183.398 317.866 181.711 317.866 179.873C317.866 178.036 317.589 176.362 317.027 174.826C316.465 173.29 315.612 172.056 314.454 171.123C313.295 170.19 311.839 169.724 310.077 169.724C308.315 169.724 306.838 170.19 305.673 171.123C304.508 172.056 303.647 173.29 303.086 174.826C302.524 176.362 302.246 178.042 302.246 179.873C302.246 181.704 302.524 183.398 303.086 184.928C303.647 186.457 304.508 187.684 305.673 188.603C306.838 189.522 308.301 189.982 310.077 189.982Z" fill="#353535"/>
<path d="M336.815 177.076V194.083H331.176V155.892H336.739V170.101H337.099C337.779 168.558 338.812 167.338 340.214 166.426C341.608 165.52 343.432 165.068 345.686 165.068C347.67 165.068 349.411 165.472 350.902 166.282C352.393 167.091 353.551 168.291 354.37 169.889C355.195 171.487 355.604 173.475 355.604 175.862V194.083H349.965V176.534C349.965 174.435 349.417 172.803 348.322 171.637C347.226 170.472 345.707 169.896 343.758 169.896C342.426 169.896 341.233 170.177 340.186 170.732C339.138 171.294 338.313 172.111 337.717 173.187C337.12 174.264 336.822 175.56 336.822 177.076H336.815Z" fill="#353535"/>
<path d="M370.107 177.076V194.083H364.469V165.438H369.879V170.101H370.239C370.905 168.586 371.952 167.365 373.381 166.446C374.81 165.527 376.606 165.068 378.784 165.068C380.761 165.068 382.488 165.472 383.972 166.288C385.457 167.104 386.608 168.311 387.426 169.916C388.245 171.521 388.654 173.503 388.654 175.862V194.083H383.015V176.534C383.015 174.456 382.467 172.831 381.371 171.658C380.275 170.485 378.777 169.896 376.863 169.896C375.552 169.896 374.394 170.177 373.381 170.732C372.369 171.294 371.571 172.111 370.988 173.187C370.406 174.264 370.114 175.56 370.114 177.076H370.107Z" fill="#353535"/>
<path d="M410.01 194.659C407.152 194.659 404.697 194.055 402.644 192.841C400.591 191.627 399.002 189.92 397.893 187.712C396.783 185.504 396.221 182.918 396.221 179.942C396.221 176.966 396.776 174.422 397.893 172.186C399.002 169.95 400.563 168.202 402.567 166.947C404.572 165.692 406.923 165.061 409.614 165.061C411.251 165.061 412.833 165.328 414.365 165.863C415.898 166.398 417.279 167.235 418.499 168.38C419.72 169.525 420.684 171.006 421.385 172.831C422.092 174.655 422.439 176.863 422.439 179.462V181.437H399.412V177.261H416.918C416.918 175.793 416.613 174.49 416.009 173.352C415.406 172.213 414.56 171.315 413.471 170.657C412.382 169.998 411.113 169.669 409.649 169.669C408.068 169.669 406.687 170.053 405.508 170.814C404.329 171.576 403.428 172.577 402.789 173.798C402.151 175.025 401.839 176.349 401.839 177.782V181.046C401.839 182.959 402.179 184.592 402.866 185.929C403.552 187.273 404.51 188.295 405.744 188.994C406.979 189.694 408.414 190.05 410.065 190.05C411.133 190.05 412.111 189.899 412.985 189.591C413.866 189.289 414.629 188.83 415.267 188.219C415.905 187.609 416.398 186.855 416.738 185.963L422.078 186.916C421.648 188.473 420.885 189.831 419.789 190.99C418.687 192.156 417.313 193.054 415.656 193.692C413.998 194.329 412.118 194.652 410.01 194.652V194.659Z" fill="#353535"/>
<path d="M435.686 177.076V194.083H430.048V165.438H435.458V170.101H435.818C436.484 168.586 437.531 167.365 438.96 166.446C440.389 165.527 442.185 165.068 444.363 165.068C446.34 165.068 448.067 165.472 449.551 166.288C451.036 167.104 452.187 168.311 453.005 169.916C453.824 171.521 454.233 173.503 454.233 175.862V194.083H448.594V176.534C448.594 174.456 448.046 172.831 446.95 171.658C445.855 170.485 444.356 169.896 442.442 169.896C441.131 169.896 439.973 170.177 438.96 170.732C437.948 171.294 437.15 172.111 436.567 173.187C435.985 174.264 435.693 175.56 435.693 177.076H435.686Z" fill="#353535"/>
<path d="M484.869 194.083V165.438H490.279V170.101H490.64C491.243 168.524 492.228 167.29 493.601 166.398C494.975 165.507 496.612 165.068 498.526 165.068C500.44 165.068 502.084 165.513 503.402 166.412C504.713 167.31 505.684 168.538 506.315 170.101H506.62C507.314 168.572 508.41 167.351 509.922 166.439C511.427 165.527 513.23 165.068 515.318 165.068C517.946 165.068 520.09 165.884 521.761 167.509C523.426 169.141 524.258 171.596 524.258 174.874V194.083H518.619V175.395C518.619 173.455 518.085 172.049 517.017 171.178C515.949 170.307 514.673 169.875 513.188 169.875C511.35 169.875 509.928 170.43 508.909 171.541C507.889 172.652 507.383 174.079 507.383 175.821V194.076H501.765V175.039C501.765 173.482 501.272 172.234 500.294 171.288C499.317 170.341 498.04 169.868 496.466 169.868C495.398 169.868 494.413 170.142 493.511 170.698C492.61 171.253 491.888 172.021 491.34 173.002C490.792 173.983 490.522 175.121 490.522 176.417V194.076H484.883L484.869 194.083Z" fill="#353535"/>
<path d="M535.966 161.022C534.988 161.022 534.149 160.692 533.448 160.041C532.748 159.39 532.401 158.608 532.401 157.703C532.401 156.797 532.748 155.995 533.448 155.343C534.149 154.692 534.988 154.363 535.966 154.363C536.944 154.363 537.783 154.692 538.484 155.343C539.184 155.995 539.531 156.777 539.531 157.682C539.531 158.587 539.184 159.39 538.484 160.041C537.783 160.692 536.944 161.022 535.966 161.022ZM533.115 194.083V165.438H538.754V194.083H533.115Z" fill="#353535"/>
<path d="M563.314 165.438V169.916H547.493V165.438H563.314ZM551.731 158.573H557.37V185.668C557.37 186.752 557.537 187.561 557.863 188.103C558.189 188.644 558.612 189.008 559.132 189.2C559.652 189.392 560.221 189.488 560.838 189.488C561.289 189.488 561.684 189.46 562.024 189.392C562.364 189.33 562.628 189.282 562.815 189.241L563.834 193.849C563.508 193.973 563.044 194.103 562.44 194.233C561.837 194.364 561.081 194.432 560.179 194.446C558.695 194.473 557.315 194.213 556.032 193.664C554.748 193.116 553.715 192.272 552.917 191.127C552.127 189.982 551.731 188.548 551.731 186.82V158.567V158.573Z" fill="#353535"/>
<path d="M598.916 194.083L590.392 165.438H596.218L601.892 186.471H602.176L607.871 165.438H613.697L619.356 186.381H619.641L625.28 165.438H631.106L622.602 194.083H616.853L610.971 173.4H610.534L604.652 194.083H598.916Z" fill="#353535"/>
<path d="M650.263 194.659C647.405 194.659 644.95 194.055 642.897 192.841C640.844 191.627 639.256 189.92 638.146 187.712C637.036 185.504 636.474 182.918 636.474 179.942C636.474 176.966 637.029 174.422 638.146 172.186C639.256 169.95 640.816 168.202 642.821 166.947C644.825 165.692 647.176 165.061 649.868 165.061C651.504 165.061 653.086 165.328 654.619 165.863C656.151 166.398 657.532 167.235 658.752 168.38C659.973 169.525 660.937 171.006 661.638 172.831C662.345 174.655 662.692 176.863 662.692 179.462V181.437H639.665V177.261H657.171C657.171 175.793 656.866 174.49 656.262 173.352C655.659 172.213 654.813 171.315 653.724 170.657C652.635 169.998 651.366 169.669 649.902 169.669C648.321 169.669 646.941 170.053 645.761 170.814C644.582 171.576 643.681 172.577 643.043 173.798C642.404 175.025 642.092 176.349 642.092 177.782V181.046C642.092 182.959 642.432 184.592 643.119 185.929C643.806 187.273 644.763 188.295 645.997 188.994C647.232 189.694 648.668 190.05 650.318 190.05C651.386 190.05 652.364 189.899 653.238 189.591C654.119 189.289 654.882 188.83 655.52 188.219C656.158 187.609 656.651 186.855 656.991 185.963L662.331 186.916C661.901 188.473 661.138 189.831 660.043 190.99C658.94 192.156 657.566 193.054 655.909 193.692C654.251 194.329 652.371 194.652 650.263 194.652V194.659Z" fill="#353535"/>
<path d="M674.213 161.022C673.235 161.022 672.395 160.692 671.695 160.041C670.994 159.39 670.648 158.608 670.648 157.703C670.648 156.797 670.994 155.995 671.695 155.343C672.395 154.692 673.235 154.363 674.213 154.363C675.191 154.363 676.03 154.692 676.73 155.343C677.431 155.995 677.778 156.777 677.778 157.682C677.778 158.587 677.431 159.39 676.73 160.041C676.03 160.692 675.191 161.022 674.213 161.022ZM671.362 194.083V165.438H677.001V194.083H671.362Z" fill="#353535"/>
<path d="M701.561 165.438V169.916H685.74V165.438H701.561ZM689.978 158.573H695.617V185.668C695.617 186.752 695.783 187.561 696.109 188.103C696.435 188.644 696.858 189.008 697.379 189.2C697.899 189.392 698.468 189.488 699.085 189.488C699.536 189.488 699.931 189.46 700.271 189.392C700.611 189.33 700.874 189.282 701.062 189.241L702.081 193.849C701.755 193.973 701.29 194.103 700.687 194.233C700.084 194.364 699.328 194.432 698.426 194.446C696.942 194.473 695.561 194.213 694.278 193.664C692.995 193.116 691.962 192.272 691.164 191.127C690.373 189.982 689.978 188.548 689.978 186.82V158.567V158.573Z" fill="#353535"/>
<path d="M710.626 194.083V155.892H716.265V170.081H716.605C716.931 169.484 717.403 168.791 718.02 168.01C718.637 167.228 719.49 166.542 720.586 165.952C721.682 165.363 723.125 165.068 724.921 165.068C727.259 165.068 729.346 165.651 731.184 166.823C733.022 167.989 734.465 169.676 735.512 171.877C736.559 174.079 737.087 176.726 737.087 179.819C737.087 182.911 736.566 185.565 735.519 187.774C734.479 189.982 733.043 191.676 731.219 192.862C729.395 194.048 727.314 194.645 724.977 194.645C723.215 194.645 721.779 194.35 720.669 193.767C719.56 193.184 718.686 192.498 718.055 191.717C717.423 190.935 716.945 190.235 716.605 189.625H716.133V194.083H710.626ZM716.154 179.764C716.154 181.78 716.452 183.542 717.042 185.058C717.631 186.573 718.485 187.76 719.608 188.61C720.725 189.461 722.098 189.886 723.721 189.886C725.344 189.886 726.815 189.44 727.945 188.555C729.076 187.664 729.936 186.457 730.518 184.928C731.101 183.398 731.392 181.677 731.392 179.764C731.392 177.85 731.108 176.177 730.532 174.675C729.957 173.173 729.103 171.987 727.966 171.116C726.828 170.245 725.414 169.813 723.714 169.813C722.015 169.813 720.697 170.232 719.573 171.061C718.45 171.891 717.597 173.057 717.021 174.545C716.445 176.04 716.154 177.775 716.154 179.764Z" fill="#353535"/>
<path d="M750.376 155.892V194.083H744.737V155.892H750.376Z" fill="#353535"/>
<path d="M763.193 161.022C762.215 161.022 761.376 160.692 760.676 160.041C759.975 159.39 759.628 158.608 759.628 157.703C759.628 156.797 759.975 155.995 760.676 155.343C761.376 154.692 762.215 154.363 763.193 154.363C764.171 154.363 765.011 154.692 765.711 155.343C766.412 155.995 766.759 156.777 766.759 157.682C766.759 158.587 766.412 159.39 765.711 160.041C765.011 160.692 764.171 161.022 763.193 161.022ZM760.343 194.083V165.438H765.982V194.083H760.343Z" fill="#353535"/>
<path d="M788.156 194.659C785.354 194.659 782.94 194.028 780.922 192.766C778.903 191.504 777.357 189.762 776.275 187.533C775.193 185.312 774.652 182.761 774.652 179.887C774.652 177.014 775.206 174.408 776.309 172.179C777.412 169.95 778.973 168.202 780.984 166.947C782.995 165.692 785.368 165.061 788.093 165.061C790.292 165.061 792.255 165.459 793.975 166.261C795.695 167.063 797.089 168.181 798.15 169.628C799.212 171.068 799.843 172.755 800.044 174.682H794.558C794.259 173.338 793.566 172.186 792.491 171.212C791.416 170.245 789.98 169.758 788.184 169.758C786.609 169.758 785.236 170.163 784.064 170.979C782.884 171.795 781.976 172.947 781.317 174.449C780.665 175.944 780.339 177.713 780.339 179.757C780.339 181.8 780.658 183.645 781.303 185.168C781.948 186.69 782.85 187.856 784.029 188.692C785.201 189.522 786.588 189.941 788.19 189.941C789.259 189.941 790.23 189.742 791.104 189.351C791.977 188.96 792.713 188.398 793.309 187.664C793.906 186.93 794.322 186.045 794.565 185.017H800.051C799.85 186.868 799.239 188.521 798.22 189.975C797.2 191.429 795.841 192.574 794.135 193.404C792.428 194.233 790.438 194.652 788.149 194.652L788.156 194.659Z" fill="#353535"/>
<path d="M806.383 194.083V155.892H812.022V194.083H806.383ZM811.565 184.365L811.53 177.556H812.508L824.049 165.431H830.805L817.64 179.229H816.753L811.565 184.358V184.365ZM824.673 194.083L814.297 180.47L818.181 176.575L831.589 194.083H824.666H824.673Z" fill="#353535"/>
<path d="M335.157 37.6044C337.307 37.6044 339.111 38.3244 340.567 39.7646C342.024 41.2047 342.752 42.9877 342.752 45.1135V127.886C342.752 130.012 342.024 131.829 340.567 133.331C339.111 134.833 337.307 135.58 335.157 135.58C332.882 135.58 331.044 134.833 329.65 133.331C328.256 131.829 327.562 130.019 327.562 127.886V110.056L331.169 109.679C331.169 112.435 330.219 115.432 328.318 118.69C326.418 121.947 323.824 124.978 320.536 127.79C317.242 130.608 313.351 132.919 308.863 134.737C304.369 136.547 299.528 137.459 294.339 137.459C285.732 137.459 278.012 135.237 271.18 130.793C264.349 126.357 258.939 120.315 254.95 112.682C250.962 105.05 248.972 96.3542 248.972 86.5957C248.972 76.8372 250.962 67.9839 254.95 60.413C258.939 52.8422 264.349 46.8965 271.18 42.5831C278.012 38.2696 285.607 36.1094 293.958 36.1094C299.396 36.1094 304.459 36.9872 309.148 38.7359C313.829 40.4915 317.908 42.8642 321.39 45.8679C324.871 48.8716 327.59 52.1907 329.553 55.8184C331.516 59.4461 332.494 63.0738 332.494 66.7015L327.556 65.5769V45.1204C327.556 42.9945 328.249 41.2115 329.643 39.7714C331.037 38.3382 332.868 37.6112 335.15 37.6112L335.157 37.6044ZM296.053 123.565C302.378 123.565 307.982 121.94 312.851 118.683C317.72 115.432 321.521 111.023 324.24 105.454C326.959 99.8859 328.318 93.5974 328.318 86.5888C328.318 79.5803 326.959 73.4838 324.24 67.9153C321.514 62.3469 317.72 57.9648 312.851 54.776C307.975 51.5872 302.378 49.9894 296.053 49.9894C289.727 49.9894 284.31 51.5529 279.441 54.68C274.565 57.8071 270.737 62.1275 267.955 67.6342C265.167 73.1409 263.78 79.4568 263.78 86.5888C263.78 93.7208 265.139 99.8859 267.858 105.454C270.577 111.023 274.378 115.432 279.247 118.683C284.116 121.94 289.72 123.565 296.046 123.565H296.053Z" fill="#8C3B1C"/>
<path d="M442.414 38.5435C444.689 38.5435 446.527 39.2635 447.921 40.7036C449.316 42.1437 450.009 43.9267 450.009 46.0526V97.2932C450.009 109.932 446.43 119.725 439.286 126.665C432.135 133.612 422.168 137.082 409.385 137.082C396.603 137.082 386.823 133.612 379.679 126.665C372.528 119.718 368.956 109.932 368.956 97.2932V46.0526C368.956 43.9267 369.684 42.1437 371.141 40.7036C372.59 39.2635 374.401 38.5435 376.551 38.5435C378.826 38.5435 380.664 39.2635 382.058 40.7036C383.452 42.1437 384.146 43.9267 384.146 46.0526V97.2932C384.146 105.804 386.358 112.25 390.79 116.625C395.215 121.007 401.423 123.195 409.392 123.195C417.362 123.195 423.916 121.007 428.279 116.625C432.642 112.25 434.826 105.804 434.826 97.2932V46.0526C434.826 43.9267 435.555 42.1437 437.011 40.7036C438.468 39.2635 440.271 38.5435 442.421 38.5435H442.414Z" fill="#8C3B1C"/>
<path d="M485.694 135.58C483.544 135.58 481.734 134.832 480.284 133.33C478.828 131.829 478.1 130.018 478.1 127.885V46.0526C478.1 43.9267 478.828 42.1437 480.284 40.7036C481.734 39.2635 483.544 38.5434 485.694 38.5434C487.969 38.5434 489.807 39.2635 491.202 40.7036C492.596 42.1437 493.289 43.9267 493.289 46.0526V70.8294L491.007 66.8862C491.77 63.0117 493.123 59.2262 495.086 55.5299C497.049 51.8405 499.545 48.5214 502.583 45.5794C505.621 42.6375 509.096 40.3264 513.022 38.6326C516.941 36.9456 521.248 36.0952 525.93 36.0952C528.711 36.0952 531.277 36.7536 533.615 38.0634C535.952 39.3801 537.124 41.2248 537.124 43.5976C537.124 46.224 536.424 48.1648 535.037 49.4129C533.642 50.6678 532.061 51.2919 530.292 51.2919C528.649 51.2919 527.067 50.949 525.548 50.2564C524.029 49.5706 522.129 49.2277 519.854 49.2277C516.691 49.2277 513.556 50.0712 510.456 51.7582C507.355 53.4452 504.505 55.8591 501.911 58.9862C499.317 62.1133 497.229 65.6519 495.647 69.5882C494.066 73.5313 493.275 77.7557 493.275 82.2543V127.865C493.275 129.991 492.547 131.808 491.091 133.31C489.634 134.812 487.831 135.559 485.681 135.559L485.694 135.58Z" fill="#8C3B1C"/>
<path d="M643.257 86.7804C643.257 96.5389 641.072 105.241 636.71 112.867C632.347 120.5 626.458 126.507 619.058 130.882C611.657 135.264 603.334 137.452 594.095 137.452C584.857 137.452 576.506 135.264 569.036 130.882C561.566 126.507 555.65 120.5 551.287 112.867C546.924 105.234 544.74 96.5389 544.74 86.7804C544.74 77.0219 546.924 68.3264 551.287 60.6938C555.65 53.0611 561.566 47.0538 569.036 42.6718C576.499 38.2966 584.857 36.1021 594.095 36.1021C603.334 36.1021 611.657 38.2897 619.058 42.6718C626.458 47.0538 632.347 53.0611 636.71 60.6938C641.072 68.3264 643.257 77.0219 643.257 86.7804ZM628.068 86.7804C628.068 79.525 626.576 73.1473 623.608 67.6337C620.632 62.127 616.582 57.8135 611.456 54.6796C606.33 51.5525 600.539 49.9889 594.089 49.9889C587.638 49.9889 581.847 51.5525 576.721 54.6796C571.595 57.8067 567.517 62.127 564.479 67.6337C561.441 73.1404 559.922 79.525 559.922 86.7804C559.922 94.0358 561.441 100.235 564.479 105.735C567.517 111.242 571.595 115.59 576.721 118.778C581.847 121.967 587.638 123.565 594.089 123.565C600.539 123.565 606.33 121.967 611.456 118.778C616.582 115.59 620.632 111.242 623.608 105.735C626.583 100.228 628.068 93.9124 628.068 86.7804Z" fill="#8C3B1C"/>
<path d="M673.623 135.58C671.473 135.58 669.663 134.832 668.213 133.33C666.756 131.829 666.028 130.018 666.028 127.885V46.0526C666.028 43.9267 666.756 42.1437 668.213 40.7036C669.663 39.2635 671.473 38.5434 673.623 38.5434C675.898 38.5434 677.736 39.2635 679.13 40.7036C680.524 42.1437 681.218 43.9267 681.218 46.0526V70.8294L678.936 66.8862C679.699 63.0117 681.051 59.2262 683.014 55.5299C684.977 51.8405 687.474 48.5214 690.512 45.5794C693.55 42.6375 697.025 40.3264 700.951 38.6326C704.869 36.9456 709.177 36.0952 713.858 36.0952C716.64 36.0952 719.206 36.7536 721.543 38.0634C723.881 39.3801 725.053 41.2248 725.053 43.5976C725.053 46.224 724.352 48.1648 722.965 49.4129C721.571 50.6678 719.99 51.2919 718.221 51.2919C716.577 51.2919 714.996 50.949 713.477 50.2564C711.958 49.5706 710.057 49.2277 707.782 49.2277C704.62 49.2277 701.485 50.0712 698.384 51.7582C695.284 53.4452 692.433 55.8591 689.839 58.9862C687.245 62.1133 685.157 65.6519 683.576 69.5882C681.995 73.5313 681.204 77.7557 681.204 82.2543V127.865C681.204 129.991 680.476 131.808 679.019 133.31C677.563 134.812 675.759 135.559 673.609 135.559L673.623 135.58Z" fill="#8C3B1C"/>
<path d="M820.748 37.6039C822.898 37.6039 824.701 38.324 826.158 39.7641C827.614 41.2042 828.343 42.9872 828.343 45.1131V127.885C828.343 130.011 827.614 131.828 826.158 133.33C824.701 134.832 822.898 135.58 820.748 135.58C818.473 135.58 816.635 134.832 815.241 133.33C813.846 131.828 813.153 130.018 813.153 127.885V110.055L816.76 109.678C816.76 112.435 815.809 115.432 813.909 118.689C812.008 121.947 809.414 124.978 806.127 127.789C802.832 130.608 798.941 132.919 794.454 134.736C789.959 136.547 785.118 137.459 779.93 137.459C771.322 137.459 763.603 135.237 756.771 130.793C749.939 126.356 744.529 120.314 740.541 112.682C736.553 105.049 734.562 96.3537 734.562 86.5952C734.562 76.8367 736.553 67.9835 740.541 60.4126C744.529 52.8417 749.939 46.8961 756.771 42.5826C763.603 38.2691 771.198 36.1089 779.548 36.1089C784.986 36.1089 790.049 36.9867 794.738 38.7354C799.42 40.491 803.498 42.8638 806.98 45.8674C810.462 48.8711 813.181 52.1902 815.143 55.8179C817.106 59.4456 818.084 63.0734 818.084 66.7011L813.146 65.5764V45.1199C813.146 42.9941 813.84 41.2111 815.234 39.771C816.628 38.3377 818.459 37.6108 820.741 37.6108L820.748 37.6039ZM781.643 123.565C787.969 123.565 793.573 121.94 798.442 118.682C803.311 115.432 807.112 111.022 809.831 105.454C812.549 99.8854 813.909 93.5969 813.909 86.5884C813.909 79.5798 812.549 73.4833 809.831 67.9149C807.105 62.3464 803.311 57.9644 798.442 54.7756C793.566 51.5867 787.969 49.9889 781.643 49.9889C775.317 49.9889 769.901 51.5525 765.031 54.6796C760.156 57.8067 756.327 62.127 753.546 67.6337C750.757 73.1404 749.37 79.4564 749.37 86.5884C749.37 93.7203 750.73 99.8854 753.449 105.454C756.167 111.022 759.968 115.432 764.837 118.682C769.706 121.94 775.31 123.565 781.636 123.565H781.643Z" fill="#8C3B1C"/>
<path d="M12.2488 195.125C11.2639 195.125 10.6119 194.103 11.0558 193.239C13.5389 188.439 24.9138 176.698 26.5714 175.245C50.2645 154.541 82.6483 149.22 113.34 154.534C114.852 154.795 118.812 155.611 117.813 157.058L92.1436 194.556C91.8939 194.912 91.4847 195.132 91.0477 195.132H12.2488V195.125Z" fill="#D1643D"/>
<path d="M220.257 157.819V194.131C220.257 194.686 219.806 195.132 219.244 195.139L153.069 195.55C152.507 195.55 152.049 195.104 152.049 194.542V157.819C152.049 157.264 152.507 156.811 153.069 156.811H219.244C219.806 156.811 220.264 157.264 220.264 157.819H220.257Z" fill="#D1643D"/>
<path d="M220.25 7.67703C220.25 7.25186 219.903 6.90897 219.473 6.90897C219.473 6.90897 144.309 6.79925 142.138 6.96384C140.085 7.12156 139.987 7.0187 137.921 9.89207L90.9089 79.2781C90.2153 80.2999 91.4777 81.5137 92.4903 80.7937L104.17 72.537C138.656 50.8393 160.622 63.8758 188.608 56.0717C199.754 52.9652 211.358 46.1006 219.889 38.3103C220.118 38.0977 220.25 37.8028 220.25 37.4942V7.67703Z" fill="#D1643D"/>
</svg>
